<svg width="200" height="40" viewBox="0 0 308 67" fill="none" xmlns="http://www.w3.org/2000/svg">
<rect x="13.5416" y="23.5909" width="50" height="32.4091" fill="white"/>
<ellipse cx="13.5417" cy="43.4545" rx="13.5417" ry="12.5455" fill="white"/>
<ellipse cx="50.5208" cy="28.2955" rx="18.2292" ry="18.2955" fill="white"/>
<ellipse cx="64.5834" cy="46.0682" rx="10.4167" ry="9.93182" fill="white"/>
<ellipse cx="23.4375" cy="28.2955" rx="10.9375" ry="12.0227" fill="white"/>
<path d="M130.965 23.85C131.258 23.85 131.46 23.9417 131.57 24.125C131.68 24.3083 131.68 24.5283 131.57 24.785L122.99 52.23C122.917 52.5233 122.788 52.725 122.605 52.835C122.458 52.945 122.22 53 121.89 53H118.7C118.04 53 117.618 52.725 117.435 52.175L111.495 33.31C111.348 32.98 111.202 32.815 111.055 32.815C110.945 32.815 110.853 32.98 110.78 33.31L105.005 52.23C104.932 52.5233 104.803 52.725 104.62 52.835C104.473 52.945 104.253 53 103.96 53H100.55C99.89 53 99.4867 52.725 99.34 52.175L90.595 24.84C90.5217 24.5467 90.54 24.3083 90.65 24.125C90.76 23.9417 90.9617 23.85 91.255 23.85H95.545C95.765 23.85 95.9667 23.9233 96.15 24.07C96.3333 24.18 96.4617 24.345 96.535 24.565L102.585 44.145C102.658 44.475 102.768 44.64 102.915 44.64C103.098 44.64 103.245 44.4567 103.355 44.09L109.295 24.51C109.368 24.29 109.478 24.125 109.625 24.015C109.772 23.905 109.973 23.85 110.23 23.85H113.42C113.64 23.85 113.842 23.9233 114.025 24.07C114.208 24.18 114.318 24.345 114.355 24.565L120.515 44.145C120.625 44.475 120.753 44.64 120.9 44.64C121.047 44.64 121.175 44.4567 121.285 44.09L127.115 24.51C127.225 24.3267 127.353 24.18 127.5 24.07C127.683 23.9233 127.903 23.85 128.16 23.85H130.965ZM141.155 40.46C141.155 42.11 141.54 43.6133 142.31 44.97C143.117 46.29 144.18 47.3533 145.5 48.16C146.857 48.93 148.36 49.315 150.01 49.315C151.697 49.315 153.2 48.9667 154.52 48.27C155.84 47.5733 157.05 46.4917 158.15 45.025C158.26 44.8783 158.37 44.805 158.48 44.805C158.59 44.7683 158.755 44.805 158.975 44.915L161.78 46.235C162.183 46.4183 162.22 46.7117 161.89 47.115C160.863 48.6183 159.727 49.8467 158.48 50.8C157.27 51.7533 155.913 52.45 154.41 52.89C152.907 53.33 151.238 53.55 149.405 53.55C146.618 53.55 144.162 52.9267 142.035 51.68C139.908 50.4333 138.222 48.6917 136.975 46.455C135.765 44.2183 135.16 41.6517 135.16 38.755C135.16 35.565 135.783 32.8333 137.03 30.56C138.277 28.25 139.963 26.4717 142.09 25.225C144.253 23.9417 146.655 23.3 149.295 23.3C152.008 23.3 154.373 23.905 156.39 25.115C158.443 26.2883 160.038 27.9933 161.175 30.23C162.312 32.4667 162.88 35.18 162.88 38.37C162.88 38.7 162.843 38.9933 162.77 39.25C162.697 39.47 162.458 39.58 162.055 39.58H141.705C141.522 39.58 141.375 39.6717 141.265 39.855C141.192 40.0017 141.155 40.2033 141.155 40.46ZM156.17 36.115C156.573 36.115 156.83 36.06 156.94 35.95C157.05 35.84 157.105 35.6383 157.105 35.345C157.105 33.9517 156.793 32.6317 156.17 31.385C155.583 30.1383 154.722 29.13 153.585 28.36C152.485 27.59 151.11 27.205 149.46 27.205C147.737 27.205 146.252 27.6267 145.005 28.47C143.795 29.2767 142.86 30.3583 142.2 31.715C141.577 33.0717 141.265 34.52 141.265 36.06L156.17 36.115ZM186.092 49.7C184.808 50.9467 183.397 51.9 181.857 52.56C180.317 53.22 178.575 53.55 176.632 53.55C173.808 53.55 171.59 52.8167 169.977 51.35C168.363 49.8833 167.557 47.9583 167.557 45.575C167.557 43.5583 168.125 41.835 169.262 40.405C170.435 38.975 172.122 37.8383 174.322 36.995C176.558 36.1517 179.272 35.6567 182.462 35.51L186.037 35.235C186.257 35.1983 186.458 35.125 186.642 35.015C186.825 34.905 186.917 34.7033 186.917 34.41V33.035C186.917 31.2383 186.367 29.8267 185.267 28.8C184.167 27.7367 182.663 27.205 180.757 27.205C179.327 27.205 178.007 27.535 176.797 28.195C175.587 28.855 174.505 29.8817 173.552 31.275C173.442 31.4583 173.332 31.5867 173.222 31.66C173.112 31.7333 172.91 31.7333 172.617 31.66L168.877 30.56C168.73 30.4867 168.62 30.395 168.547 30.285C168.51 30.1383 168.565 29.8817 168.712 29.515C169.775 27.535 171.333 26.0133 173.387 24.95C175.477 23.85 178.025 23.3 181.032 23.3C183.672 23.3 185.835 23.685 187.522 24.455C189.208 25.1883 190.455 26.27 191.262 27.7C192.105 29.0933 192.527 30.7433 192.527 32.65V52.065C192.527 52.4317 192.453 52.6883 192.307 52.835C192.197 52.945 191.995 53 191.702 53H187.962C187.705 53 187.503 52.9083 187.357 52.725C187.21 52.505 187.118 52.23 187.082 51.9L187.027 49.81C186.917 49.2233 186.605 49.1867 186.092 49.7ZM186.917 39.305C186.917 38.6817 186.66 38.4067 186.147 38.48L183.177 38.7C181.71 38.7733 180.372 38.975 179.162 39.305C177.952 39.5983 176.907 40.0017 176.027 40.515C175.183 41.0283 174.505 41.6517 173.992 42.385C173.515 43.0817 173.277 43.9067 173.277 44.86C173.277 46.29 173.772 47.4267 174.762 48.27C175.788 49.0767 177.163 49.48 178.887 49.48C179.987 49.48 181.013 49.2967 181.967 48.93C182.957 48.5267 183.818 48.0317 184.552 47.445C185.285 46.8217 185.853 46.18 186.257 45.52C186.697 44.86 186.917 44.2183 186.917 43.595V39.305ZM209.306 28.03C208.976 28.03 208.811 28.2133 208.811 28.58V44.695C208.811 46.2717 209.105 47.3533 209.691 47.94C210.278 48.49 211.176 48.765 212.386 48.765H215.906C216.126 48.765 216.291 48.8383 216.401 48.985C216.511 49.095 216.566 49.2417 216.566 49.425V51.79C216.566 52.2667 216.291 52.5783 215.741 52.725C215.265 52.7983 214.678 52.8533 213.981 52.89C213.285 52.9267 212.588 52.9633 211.891 53C211.231 53 210.645 53 210.131 53C207.748 53 205.951 52.45 204.741 51.35C203.568 50.2133 202.981 48.4717 202.981 46.125V28.69C202.981 28.25 202.798 28.03 202.431 28.03H198.306C197.83 28.03 197.591 27.81 197.591 27.37V24.455C197.591 24.0517 197.811 23.85 198.251 23.85H202.651C202.945 23.85 203.091 23.685 203.091 23.355L203.751 14.72C203.788 14.2067 204.008 13.95 204.411 13.95H208.206C208.683 13.95 208.921 14.2433 208.921 14.83V23.355C208.921 23.685 209.086 23.85 209.416 23.85H216.016C216.456 23.85 216.676 24.0517 216.676 24.455V27.37C216.676 27.81 216.42 28.03 215.906 28.03H209.306ZM224.122 53C223.535 53 223.242 52.7067 223.242 52.12V13.015C223.242 12.465 223.462 12.19 223.902 12.19H228.247C228.687 12.19 228.907 12.4283 228.907 12.905V27.425C228.907 27.6083 228.943 27.7367 229.017 27.81C229.127 27.8467 229.273 27.7733 229.457 27.59C230.703 26.6 231.84 25.7933 232.867 25.17C233.93 24.5467 234.975 24.0883 236.002 23.795C237.065 23.465 238.183 23.3 239.357 23.3C242.18 23.3 244.343 24.07 245.847 25.61C247.35 27.1133 248.102 29.1667 248.102 31.77V52.01C248.102 52.67 247.79 53 247.167 53H243.097C242.803 53 242.583 52.945 242.437 52.835C242.327 52.6883 242.272 52.45 242.272 52.12V32.87C242.272 31.2567 241.85 29.9917 241.007 29.075C240.2 28.1583 238.917 27.7 237.157 27.7C236.167 27.7 235.232 27.865 234.352 28.195C233.508 28.4883 232.665 28.9467 231.822 29.57C230.978 30.1567 230.062 30.9083 229.072 31.825V52.065C229.072 52.6883 228.723 53 228.027 53H224.122ZM260.911 40.46C260.911 42.11 261.296 43.6133 262.066 44.97C262.872 46.29 263.936 47.3533 265.256 48.16C266.612 48.93 268.116 49.315 269.766 49.315C271.452 49.315 272.956 48.9667 274.276 48.27C275.596 47.5733 276.806 46.4917 277.906 45.025C278.016 44.8783 278.126 44.805 278.236 44.805C278.346 44.7683 278.511 44.805 278.731 44.915L281.536 46.235C281.939 46.4183 281.976 46.7117 281.646 47.115C280.619 48.6183 279.482 49.8467 278.236 50.8C277.026 51.7533 275.669 52.45 274.166 52.89C272.662 53.33 270.994 53.55 269.161 53.55C266.374 53.55 263.917 52.9267 261.791 51.68C259.664 50.4333 257.977 48.6917 256.731 46.455C255.521 44.2183 254.916 41.6517 254.916 38.755C254.916 35.565 255.539 32.8333 256.786 30.56C258.032 28.25 259.719 26.4717 261.846 25.225C264.009 23.9417 266.411 23.3 269.051 23.3C271.764 23.3 274.129 23.905 276.146 25.115C278.199 26.2883 279.794 27.9933 280.931 30.23C282.067 32.4667 282.636 35.18 282.636 38.37C282.636 38.7 282.599 38.9933 282.526 39.25C282.452 39.47 282.214 39.58 281.811 39.58H261.461C261.277 39.58 261.131 39.6717 261.021 39.855C260.947 40.0017 260.911 40.2033 260.911 40.46ZM275.926 36.115C276.329 36.115 276.586 36.06 276.696 35.95C276.806 35.84 276.861 35.6383 276.861 35.345C276.861 33.9517 276.549 32.6317 275.926 31.385C275.339 30.1383 274.477 29.13 273.341 28.36C272.241 27.59 270.866 27.205 269.216 27.205C267.492 27.205 266.007 27.6267 264.761 28.47C263.551 29.2767 262.616 30.3583 261.956 31.715C261.332 33.0717 261.021 34.52 261.021 36.06L275.926 36.115ZM290.282 53C289.989 53 289.769 52.9267 289.622 52.78C289.476 52.6333 289.402 52.4133 289.402 52.12V24.675C289.402 24.125 289.641 23.85 290.117 23.85H294.352C294.792 23.85 295.012 24.0883 295.012 24.565V28.03C295.012 28.25 295.067 28.3783 295.177 28.415C295.324 28.4517 295.471 28.3783 295.617 28.195C296.534 27.095 297.451 26.1967 298.367 25.5C299.321 24.7667 300.274 24.2167 301.227 23.85C302.181 23.4833 303.134 23.3 304.087 23.3C305.371 23.3 306.012 23.5567 306.012 24.07V28.36C306.012 28.8 305.811 28.9833 305.407 28.91C304.967 28.8 304.491 28.7267 303.977 28.69C303.501 28.6533 303.006 28.635 302.492 28.635C301.722 28.635 300.916 28.8 300.072 29.13C299.229 29.46 298.441 29.9183 297.707 30.505C297.011 31.055 296.424 31.6783 295.947 32.375C295.471 33.0717 295.232 33.7867 295.232 34.52V52.065C295.232 52.6883 294.884 53 294.187 53H290.282Z" fill="white"/>
</svg>
