<svg width="247" height="79" viewBox="0 0 247 79" fill="none" xmlns="http://www.w3.org/2000/svg">
<path d="M79.5374 66.7782C77.0804 66.7782 75.1261 66.1062 73.6742 64.7622C72.2224 63.3995 71.4965 61.4582 71.4965 58.9382V54.2342C71.4965 51.7142 72.2224 49.7822 73.6742 48.4382C75.1261 47.0755 77.0804 46.3942 79.5374 46.3942C81.9943 46.3942 83.9487 47.0755 85.4005 48.4382C86.8524 49.7822 87.5783 51.7142 87.5783 54.2342V58.9382C87.5783 61.4582 86.8524 63.3995 85.4005 64.7622C83.9487 66.1062 81.9943 66.7782 79.5374 66.7782ZM79.5374 63.4742C80.9148 63.4742 81.985 63.0729 82.7481 62.2702C83.5113 61.4675 83.8929 60.3942 83.8929 59.0502V54.1222C83.8929 52.7782 83.5113 51.7049 82.7481 50.9022C81.985 50.0995 80.9148 49.6982 79.5374 49.6982C78.1786 49.6982 77.1084 50.0995 76.3266 50.9022C75.5635 51.7049 75.1819 52.7782 75.1819 54.1222V59.0502C75.1819 60.3942 75.5635 61.4675 76.3266 62.2702C77.1084 63.0729 78.1786 63.4742 79.5374 63.4742Z" fill="#464648"/>
<path d="M90.3643 71.9862V52.4982H93.8263V54.1782H94.3289C94.6453 53.6369 95.1386 53.1609 95.8086 52.7502C96.4787 52.3209 97.4373 52.1062 98.6844 52.1062C99.8012 52.1062 100.834 52.3862 101.783 52.9462C102.733 53.4875 103.496 54.2902 104.073 55.3542C104.65 56.4182 104.938 57.7062 104.938 59.2182V59.6662C104.938 61.1782 104.65 62.4662 104.073 63.5302C103.496 64.5942 102.733 65.4062 101.783 65.9662C100.834 66.5075 99.8012 66.7782 98.6844 66.7782C97.8468 66.7782 97.1395 66.6755 96.5625 66.4702C96.0041 66.2835 95.5481 66.0409 95.1944 65.7422C94.8594 65.4249 94.5895 65.1075 94.3847 64.7902H93.8822V71.9862H90.3643ZM97.6234 63.6982C98.7216 63.6982 99.6244 63.3529 100.332 62.6622C101.058 61.9529 101.42 60.9262 101.42 59.5822V59.3022C101.42 57.9582 101.058 56.9409 100.332 56.2502C99.6058 55.5409 98.703 55.1862 97.6234 55.1862C96.5439 55.1862 95.6411 55.5409 94.9152 56.2502C94.1893 56.9409 93.8263 57.9582 93.8263 59.3022V59.5822C93.8263 60.9262 94.1893 61.9529 94.9152 62.6622C95.6411 63.3529 96.5439 63.6982 97.6234 63.6982Z" fill="#464648"/>
<path d="M113.92 66.7782C112.543 66.7782 111.323 66.4889 110.262 65.9102C109.22 65.3129 108.401 64.4822 107.806 63.4182C107.229 62.3355 106.94 61.0662 106.94 59.6102V59.2742C106.94 57.8182 107.229 56.5582 107.806 55.4942C108.383 54.4115 109.192 53.5809 110.235 53.0022C111.277 52.4049 112.487 52.1062 113.864 52.1062C115.223 52.1062 116.405 52.4142 117.41 53.0302C118.415 53.6275 119.197 54.4675 119.755 55.5502C120.314 56.6142 120.593 57.8555 120.593 59.2742V60.4782H110.514C110.551 61.4302 110.905 62.2049 111.575 62.8022C112.245 63.3995 113.064 63.6982 114.032 63.6982C115.018 63.6982 115.744 63.4835 116.209 63.0542C116.675 62.6249 117.028 62.1489 117.27 61.6262L120.146 63.1382C119.886 63.6235 119.504 64.1555 119.001 64.7342C118.517 65.2942 117.866 65.7795 117.047 66.1902C116.228 66.5822 115.186 66.7782 113.92 66.7782ZM110.542 57.8462H117.019C116.945 57.0435 116.619 56.3995 116.042 55.9142C115.484 55.4289 114.748 55.1862 113.836 55.1862C112.887 55.1862 112.133 55.4289 111.575 55.9142C111.016 56.3995 110.672 57.0435 110.542 57.8462Z" fill="#464648"/>
<path d="M123.166 66.3862V52.4982H126.628V54.3182H127.13C127.354 53.8329 127.772 53.3755 128.387 52.9462C129.001 52.4982 129.932 52.2742 131.179 52.2742C132.258 52.2742 133.198 52.5262 133.999 53.0302C134.818 53.5155 135.45 54.1969 135.897 55.0742C136.344 55.9329 136.567 56.9409 136.567 58.0982V66.3862H133.049V58.3782C133.049 57.3329 132.789 56.5489 132.268 56.0262C131.765 55.5035 131.039 55.2422 130.09 55.2422C129.01 55.2422 128.173 55.6062 127.577 56.3342C126.981 57.0435 126.684 58.0422 126.684 59.3302V66.3862H123.166Z" fill="#464648"/>
<path d="M141.264 66.3862L138.695 46.7862H142.353L144.251 63.8102H144.754L147.211 46.7862H153.576L156.033 63.8102H156.536L158.434 46.7862H162.092L159.523 66.3862H153.158L150.645 48.9702H150.142L147.629 66.3862H141.264Z" fill="#464648"/>
<path d="M170.484 66.7782C169.107 66.7782 167.888 66.4889 166.827 65.9102C165.784 65.3129 164.965 64.4822 164.37 63.4182C163.793 62.3355 163.504 61.0662 163.504 59.6102V59.2742C163.504 57.8182 163.793 56.5582 164.37 55.4942C164.947 54.4115 165.756 53.5809 166.799 53.0022C167.841 52.4049 169.051 52.1062 170.428 52.1062C171.787 52.1062 172.969 52.4142 173.974 53.0302C174.979 53.6275 175.761 54.4675 176.319 55.5502C176.878 56.6142 177.157 57.8555 177.157 59.2742V60.4782H167.078C167.115 61.4302 167.469 62.2049 168.139 62.8022C168.809 63.3995 169.628 63.6982 170.596 63.6982C171.582 63.6982 172.308 63.4835 172.773 63.0542C173.239 62.6249 173.592 62.1489 173.834 61.6262L176.71 63.1382C176.45 63.6235 176.068 64.1555 175.565 64.7342C175.081 65.2942 174.43 65.7795 173.611 66.1902C172.792 66.5822 171.75 66.7782 170.484 66.7782ZM167.106 57.8462H173.583C173.509 57.0435 173.183 56.3995 172.606 55.9142C172.048 55.4289 171.312 55.1862 170.4 55.1862C169.451 55.1862 168.697 55.4289 168.139 55.9142C167.58 56.3995 167.236 57.0435 167.106 57.8462Z" fill="#464648"/>
<path d="M199.608 66.3862C198.696 66.3862 197.952 66.1062 197.375 65.5462C196.816 64.9675 196.537 64.2022 196.537 63.2502V55.4102H193.075V52.4982H196.537V48.1862H200.055V52.4982H203.852V55.4102H200.055V62.6342C200.055 63.1942 200.316 63.4742 200.837 63.4742H203.517V66.3862H199.608Z" fill="#464648"/>
<path d="M206.478 66.3862V46.7862H209.996V54.2062H210.499C210.648 53.9075 210.88 53.6089 211.197 53.3102C211.513 53.0115 211.932 52.7689 212.453 52.5822C212.993 52.3769 213.672 52.2742 214.491 52.2742C215.571 52.2742 216.511 52.5262 217.311 53.0302C218.13 53.5155 218.763 54.1969 219.21 55.0742C219.656 55.9329 219.88 56.9409 219.88 58.0982V66.3862H216.362V58.3782C216.362 57.3329 216.101 56.5489 215.58 56.0262C215.078 55.5035 214.352 55.2422 213.402 55.2422C212.323 55.2422 211.485 55.6062 210.89 56.3342C210.294 57.0435 209.996 58.0422 209.996 59.3302V66.3862H206.478Z" fill="#464648"/>
<path d="M229.434 66.7782C228.057 66.7782 226.838 66.4889 225.777 65.9102C224.734 65.3129 223.915 64.4822 223.32 63.4182C222.743 62.3355 222.454 61.0662 222.454 59.6102V59.2742C222.454 57.8182 222.743 56.5582 223.32 55.4942C223.897 54.4115 224.706 53.5809 225.749 53.0022C226.791 52.4049 228.001 52.1062 229.378 52.1062C230.737 52.1062 231.919 52.4142 232.924 53.0302C233.929 53.6275 234.711 54.4675 235.27 55.5502C235.828 56.6142 236.107 57.8555 236.107 59.2742V60.4782H226.028C226.065 61.4302 226.419 62.2049 227.089 62.8022C227.759 63.3995 228.578 63.6982 229.546 63.6982C230.532 63.6982 231.258 63.4835 231.724 63.0542C232.189 62.6249 232.543 62.1489 232.785 61.6262L235.66 63.1382C235.4 63.6235 235.018 64.1555 234.516 64.7342C234.032 65.2942 233.38 65.7795 232.561 66.1902C231.742 66.5822 230.7 66.7782 229.434 66.7782ZM226.056 57.8462H232.533C232.459 57.0435 232.133 56.3995 231.556 55.9142C230.998 55.4289 230.263 55.1862 229.35 55.1862C228.401 55.1862 227.647 55.4289 227.089 55.9142C226.531 56.3995 226.186 57.0435 226.056 57.8462Z" fill="#464648"/>
<path d="M238.68 66.3862V52.4982H242.142V54.0662H242.645C242.849 53.5062 243.184 53.0955 243.65 52.8342C244.134 52.5729 244.692 52.4422 245.325 52.4422H247V55.5782H245.269C244.376 55.5782 243.64 55.8209 243.063 56.3062C242.486 56.7729 242.198 57.5009 242.198 58.4902V66.3862H238.68Z" fill="#464648"/>
<path d="M184.629 66.7334C183.643 66.7334 182.759 66.5654 181.977 66.2294C181.195 65.8747 180.571 65.3707 180.106 64.7174C179.659 64.0454 179.436 63.2334 179.436 62.2814C179.436 61.3294 179.659 60.5361 180.106 59.9014C180.571 59.2481 181.204 58.7627 182.005 58.4454C182.824 58.1094 183.754 57.9414 184.797 57.9414H188.594V57.1574C188.594 56.5041 188.389 55.9721 187.98 55.5614C187.57 55.1321 186.919 54.9174 186.025 54.9174C185.15 54.9174 184.499 55.1227 184.071 55.5334C183.643 55.9254 183.363 56.4387 183.233 57.0734L179.994 55.9814C180.218 55.2721 180.571 54.6281 181.055 54.0494C181.558 53.4521 182.219 52.9761 183.038 52.6214C183.875 52.2481 184.89 52.0614 186.081 52.0614C187.905 52.0614 189.348 52.5187 190.409 53.4334C191.47 54.3481 192 55.6734 192 57.4094V62.5894C192 63.1494 192 63.2054 192 63.6534V64.7174V66.3414H191.553C190.865 66.3414 189.73 66.3134 189.18 66.3134C189.18 65.8374 189.18 65.0534 189.18 64.4934V64.4654H188.65C188.575 64.6894 188.408 64.9881 188.147 65.3614C187.886 65.7161 187.477 66.0334 186.919 66.3134C186.36 66.5934 185.597 66.7334 184.629 66.7334ZM185.243 63.8774C186.23 63.8774 187.03 63.6067 187.644 63.0654C188.277 62.5054 188.594 61.7681 188.594 60.8534V60.5734H185.048C184.396 60.5734 183.885 60.7134 183.512 60.9934C183.14 61.2734 182.954 61.6654 182.954 62.1694C182.954 62.6734 183.149 63.0841 183.54 63.4014C183.931 63.7187 184.499 63.8774 185.243 63.8774Z" fill="#464648"/>
<mask id="mask0_137_457" style="mask-type:luminance" maskUnits="userSpaceOnUse" x="0" y="24" width="59" height="55">
<path d="M58.5037 24H0V79H58.5037V24Z" fill="white"/>
</mask>
<g mask="url(#mask0_137_457)">
<path d="M52.7337 54.1455C52.0627 54.118 51.3862 54.1455 50.7097 54.1455C47.9597 54.1455 47.9597 54.1455 48.0202 51.3515C48.1377 48.1203 47.5558 44.9018 46.3141 41.9164C45.0725 38.9309 43.2005 36.2489 40.8262 34.054V34.0265L40.3312 33.5865C37.8582 31.4173 34.9397 29.8166 31.7812 28.8971C28.6227 27.9776 25.301 27.7616 22.0501 28.2645C18.7992 28.7673 15.698 29.9767 12.9649 31.8075C10.2318 33.6383 7.93333 36.046 6.23123 38.861L6.19273 38.9215C6.07723 39.1195 5.95623 39.3175 5.84623 39.5155C3.65583 43.3892 2.66973 47.8278 3.01373 52.2645C3.05773 53.0015 3.56373 54.0905 2.06773 54.195C0.775229 54.283 -0.192772 54.9265 0.0327278 56.395C0.258228 57.8635 1.38573 58.045 2.64523 58.045C4.59773 58.0065 6.55573 58.045 8.50823 58.045C9.76223 58.045 10.6642 58.551 10.7082 59.8765C10.7467 61.0755 9.98223 61.741 8.79973 61.7575C7.33123 61.7575 6.37423 62.434 6.48973 63.9135C6.60523 65.393 7.81523 65.5635 9.06373 65.5305C12.5672 65.503 16.0707 65.4975 19.5797 65.5305C20.8722 65.5305 21.8292 66.0805 21.7522 67.582C21.6807 68.9515 20.7952 69.386 19.5522 69.3805C17.3962 69.3805 15.2402 69.3805 13.0787 69.3805C11.7092 69.3805 10.3672 69.452 10.3617 71.2505C10.3562 73.049 11.7147 73.1095 13.0787 73.104C20.3607 73.104 27.6427 73.104 34.9192 73.104C38.0872 73.104 41.2552 73.104 44.4232 73.104C45.7102 73.104 46.7772 72.8675 46.8157 71.333C46.8597 69.683 45.7157 69.353 44.3737 69.386C43.8237 69.386 43.2737 69.386 42.7567 69.386H33.0492C31.7787 69.386 30.9372 68.836 30.8987 67.516C30.8602 66.196 31.7347 65.624 32.9667 65.536C33.3682 65.503 33.7752 65.536 34.1767 65.536C35.4087 65.536 36.5582 65.3985 36.6572 63.842C36.7672 62.192 35.6672 61.8015 34.3032 61.796C33.0602 61.73 32.3397 61.004 32.3397 59.904C32.3397 58.6555 33.1592 57.979 34.4737 58.0175C35.2822 58.0175 36.0962 58.0175 36.9047 58.0175C42.1627 58.0175 47.4207 58.0175 52.6787 58.0175C54.0042 58.0175 54.9557 57.5995 54.9997 56.12C55.0437 54.6405 53.9987 54.2005 52.7337 54.1455Z" fill="#EB6D4A"/>
<path d="M51.9501 65.4915C52.9743 65.4915 53.8045 64.6613 53.8045 63.6372C53.8045 62.6131 52.9743 61.7829 51.9501 61.7829C50.926 61.7829 50.0958 62.6131 50.0958 63.6372C50.0958 64.6613 50.926 65.4915 51.9501 65.4915Z" fill="#EB6D4A"/>
<path d="M56.6259 65.4915C57.65 65.4915 58.4802 64.6613 58.4802 63.6372C58.4802 62.6131 57.65 61.7829 56.6259 61.7829C55.6018 61.7829 54.7716 62.6131 54.7716 63.6372C54.7716 64.6613 55.6018 65.4915 56.6259 65.4915Z" fill="#EB6D4A"/>
<path d="M56.7416 61.7829H51.7604V65.4916H56.7416V61.7829Z" fill="#EB6D4A"/>
<path d="M41.0245 65.4915C42.0486 65.4915 42.8788 64.6613 42.8788 63.6372C42.8788 62.6131 42.0486 61.7829 41.0245 61.7829C40.0004 61.7829 39.1702 62.6131 39.1702 63.6372C39.1702 64.6613 40.0004 65.4915 41.0245 65.4915Z" fill="#EB6D4A"/>
<path d="M45.7003 65.4915C46.7244 65.4915 47.5546 64.6613 47.5546 63.6372C47.5546 62.6131 46.7244 61.7829 45.7003 61.7829C44.6762 61.7829 43.8459 62.6131 43.8459 63.6372C43.8459 64.6613 44.6762 65.4915 45.7003 65.4915Z" fill="#EB6D4A"/>
<path d="M45.8158 61.7829H40.8346V65.4916H45.8158V61.7829Z" fill="#EB6D4A"/>
</g>
</svg>
